<?xml version="1.0" encoding="UTF-8"?>
<svg xmlns="http://www.w3.org/2000/svg" xmlns:xlink="http://www.w3.org/1999/xlink" width="96pt" height="96pt" viewBox="0 0 96 96" version="1.1">
<g id="surface1">
<path style=" stroke:none;fill-rule:nonzero;fill:#1E90FF;fill-opacity:1;" d="M 48 9 C 26.496094 9 9 26.496094 9 48 C 9 69.503906 26.496094 87 48 87 C 69.503906 87 87 69.503906 87 48 C 87 26.496094 69.503906 9 48 9 Z M 48 15 C 66.257813 15 81 29.742188 81 48 C 81 66.257813 66.257813 81 48 81 C 29.742188 81 15 66.257813 15 48 C 15 29.742188 29.742188 15 48 15 Z M 48 24 C 39.75 24 33 30.75 33 39 C 33 43.546875 35.121094 47.589844 38.34375 50.34375 C 31.59375 53.847656 27 60.902344 27 69 L 33 69 C 33 60.679688 39.679688 54 48 54 C 56.320313 54 63 60.679688 63 69 L 69 69 C 69 60.902344 64.40625 53.847656 57.65625 50.34375 C 60.878906 47.589844 63 43.546875 63 39 C 63 30.75 56.25 24 48 24 Z M 48 30 C 53.003906 30 57 33.996094 57 39 C 57 44.003906 53.003906 48 48 48 C 42.996094 48 39 44.003906 39 39 C 39 33.996094 42.996094 30 48 30 Z "/>
</g>
</svg>
